<svg width="24" height="24" viewBox="0 0 24 24" fill="none" xmlns="http://www.w3.org/2000/svg">
<mask id="path-1-inside-1_5027_2833" fill="white">
<path d="M21 11.0984C21.0025 10.4629 20.8376 9.83802 20.522 9.28703C20.2064 8.73605 19.7513 8.27852 19.2028 7.96077C19.2163 7.80479 19.2163 7.64792 19.2028 7.49193C19.2028 6.77457 18.9188 6.08658 18.4133 5.57933C17.9077 5.07207 17.2221 4.7871 16.5071 4.7871H16.3454C16.1957 4.37083 15.9466 3.99776 15.6198 3.7006C15.293 3.40345 14.8986 3.19127 14.471 3.08269C14.0435 2.97411 13.5959 2.97244 13.1676 3.07782C12.7392 3.1832 12.3432 3.39242 12.0142 3.68713C11.6853 3.39242 11.2892 3.1832 10.8609 3.07782C10.4326 2.97244 9.985 2.97411 9.55746 3.08269C9.12993 3.19127 8.73547 3.40345 8.40868 3.7006C8.08189 3.99776 7.83275 4.37083 7.68312 4.7871H7.52137C6.80642 4.7871 6.12076 5.07207 5.61521 5.57933C5.10966 6.08658 4.82565 6.77457 4.82565 7.49193C4.81213 7.64792 4.81213 7.80479 4.82565 7.96077C4.31568 8.25001 3.88388 8.65992 3.56787 9.15485C3.25185 9.64977 3.06118 10.2147 3.01245 10.8004C2.96373 11.3862 3.05843 11.975 3.28832 12.5156C3.5182 13.0563 3.8763 13.5323 4.33144 13.9024C4.03695 14.4535 3.89034 15.072 3.906 15.6972C3.92167 16.3223 4.09906 16.9326 4.42077 17.4682C4.74249 18.0038 5.19747 18.4462 5.74106 18.7521C6.28464 19.058 6.89815 19.2168 7.52137 19.2129H7.68312C7.83275 19.6292 8.08189 20.0022 8.40868 20.2994C8.73547 20.5966 9.12993 20.8087 9.55746 20.9173C9.985 21.0259 10.4326 21.0276 10.8609 20.9222C11.2892 20.8168 11.6853 20.6076 12.0142 20.3129C12.3432 20.6076 12.7392 20.8168 13.1676 20.9222C13.5959 21.0276 14.0435 21.0259 14.471 20.9173C14.8986 20.8087 15.293 20.5966 15.6198 20.2994C15.9466 20.0022 16.1957 19.6292 16.3454 19.2129H16.5071C17.1265 19.209 17.7344 19.0445 18.2718 18.7354C18.8092 18.4263 19.2579 17.9832 19.5743 17.4489C19.8907 16.9145 20.0642 16.3073 20.0778 15.6859C20.0914 15.0645 19.9448 14.4502 19.6521 13.9024C20.0712 13.5657 20.4099 13.1391 20.6431 12.6538C20.8764 12.1686 20.9983 11.6371 21 11.0984ZM11.1157 8.88944C10.92 8.77712 10.7156 8.68064 10.5046 8.60092C10.2782 8.5244 10.0308 8.54126 9.8168 8.64778C9.60278 8.7543 9.43971 8.94177 9.36345 9.16893C9.28719 9.3961 9.30399 9.64436 9.41015 9.8591C9.51631 10.0738 9.70315 10.2375 9.92955 10.314C10.2754 10.4395 10.5746 10.6684 10.7868 10.9699C10.9989 11.2714 11.1137 11.631 11.1157 12V13.3975C10.92 13.2852 10.7156 13.1887 10.5046 13.109C10.2782 13.0325 10.0308 13.0493 9.8168 13.1558C9.60278 13.2624 9.43971 13.4498 9.36345 13.677C9.28719 13.9042 9.30399 14.1524 9.41015 14.3672C9.51631 14.5819 9.70315 14.7455 9.92955 14.822C10.2754 14.9475 10.5746 15.1765 10.7868 15.478C10.9989 15.7795 11.1137 16.139 11.1157 16.5081V18.3113C11.1157 18.5504 11.021 18.7797 10.8525 18.9488C10.684 19.1179 10.4554 19.2129 10.2171 19.2129C10.0432 19.2118 9.87347 19.1601 9.72833 19.064C9.58319 18.968 9.46893 18.8318 9.39939 18.6719C9.55006 18.5832 9.6942 18.4838 9.83071 18.3744C9.92157 18.2986 9.99666 18.2056 10.0517 18.1007C10.1068 17.9958 10.1407 17.8811 10.1515 17.763C10.1624 17.645 10.1499 17.526 10.1149 17.4127C10.0799 17.2995 10.023 17.1943 9.94752 17.1031C9.872 17.012 9.77932 16.9366 9.67478 16.8814C9.57023 16.8261 9.45587 16.7921 9.33822 16.7812C9.22057 16.7703 9.10193 16.7828 8.98909 16.8179C8.87624 16.8531 8.77139 16.9101 8.68053 16.9859C8.35608 17.26 7.94549 17.4101 7.52137 17.4097C7.04474 17.4097 6.58763 17.2197 6.2506 16.8815C5.91357 16.5434 5.72423 16.0847 5.72423 15.6065C5.72852 15.2671 5.82819 14.9358 6.01177 14.6507C6.21343 14.687 6.41792 14.7051 6.6228 14.7048C6.86111 14.7048 7.08967 14.6098 7.25819 14.4408C7.4267 14.2717 7.52137 14.0423 7.52137 13.8032C7.52137 13.5641 7.4267 13.3348 7.25819 13.1657C7.08967 12.9966 6.86111 12.9016 6.6228 12.9016C6.41054 12.9028 6.20004 12.863 6.00278 12.7844C5.67961 12.6675 5.39661 12.46 5.18732 12.1866C4.97803 11.9133 4.85122 11.5854 4.8219 11.242C4.79259 10.8985 4.86201 10.5538 5.02193 10.2487C5.18185 9.94365 5.42557 9.69095 5.72423 9.52056C5.85191 9.63844 5.99029 9.74409 6.13757 9.83613C6.3449 9.95569 6.59108 9.98771 6.82195 9.92515C7.05281 9.86259 7.24946 9.71057 7.36861 9.50253C7.48777 9.29449 7.51969 9.04748 7.45734 8.81584C7.39499 8.58419 7.24348 8.38688 7.03614 8.26732C6.90965 8.19731 6.80415 8.09457 6.73063 7.96979C6.64755 7.82503 6.60997 7.65848 6.6228 7.49193C6.6228 7.25281 6.71747 7.02348 6.88598 6.8544C7.0545 6.68531 7.28306 6.59032 7.52137 6.59032C7.58397 6.58156 7.64748 6.58156 7.71007 6.59032C7.75764 6.73518 7.81467 6.87674 7.8808 7.01408C7.93951 7.11739 8.018 7.20803 8.11176 7.28078C8.20553 7.35353 8.31271 7.40694 8.42713 7.43795C8.54155 7.46896 8.66096 7.47694 8.77848 7.46145C8.89599 7.44596 9.00929 7.40729 9.11185 7.34768C9.31107 7.22741 9.45607 7.03434 9.51639 6.80905C9.57672 6.58375 9.54766 6.34377 9.43533 6.13952C9.35994 6.00121 9.31981 5.84634 9.31852 5.68871C9.31852 5.44959 9.41319 5.22026 9.5817 5.05117C9.75022 4.88209 9.97878 4.7871 10.2171 4.7871C10.4554 4.7871 10.684 4.88209 10.8525 5.05117C11.021 5.22026 11.1157 5.44959 11.1157 5.68871V8.88944ZM18.0257 12.7844C17.8284 12.863 17.6179 12.9028 17.4057 12.9016C17.1674 12.9016 16.9388 12.9966 16.7703 13.1657C16.6018 13.3348 16.5071 13.5641 16.5071 13.8032C16.5071 14.0423 16.6018 14.2717 16.7703 14.4408C16.9388 14.6098 17.1674 14.7048 17.4057 14.7048C17.6106 14.7051 17.815 14.687 18.0167 14.6507C18.2003 14.9358 18.3 15.2671 18.3043 15.6065C18.3043 16.0847 18.1149 16.5434 17.7779 16.8815C17.4408 17.2197 16.9837 17.4097 16.5071 17.4097C16.083 17.4101 15.6724 17.26 15.3479 16.9859C15.1644 16.8329 14.9279 16.7593 14.6903 16.7812C14.4527 16.8032 14.2335 16.919 14.081 17.1031C13.9284 17.2873 13.8551 17.5246 13.877 17.763C13.8989 18.0015 14.0143 18.2214 14.1978 18.3744C14.3343 18.4838 14.4784 18.5832 14.6291 18.6719C14.5596 18.8318 14.4453 18.968 14.3001 19.064C14.155 19.1601 13.9852 19.2118 13.8114 19.2129C13.5731 19.2129 13.3445 19.1179 13.176 18.9488C13.0075 18.7797 12.9128 18.5504 12.9128 18.3113V16.5081C12.9148 16.139 13.0296 15.7795 13.2417 15.478C13.4538 15.1765 13.753 14.9475 14.0989 14.822C14.3253 14.7455 14.5122 14.5819 14.6183 14.3672C14.7245 14.1524 14.7413 13.9042 14.665 13.677C14.5888 13.4498 14.4257 13.2624 14.2117 13.1558C13.9977 13.0493 13.7502 13.0325 13.5238 13.109C13.3128 13.1887 13.1085 13.2852 12.9128 13.3975V12C12.9148 11.631 13.0296 11.2714 13.2417 10.9699C13.4538 10.6684 13.753 10.4395 14.0989 10.314C14.3253 10.2375 14.5122 10.0738 14.6183 9.8591C14.7245 9.64436 14.7413 9.3961 14.665 9.16893C14.5888 8.94177 14.4257 8.7543 14.2117 8.64778C13.9977 8.54126 13.7502 8.5244 13.5238 8.60092C13.3128 8.68064 13.1085 8.77712 12.9128 8.88944V5.68871C12.9128 5.44959 13.0075 5.22026 13.176 5.05117C13.3445 4.88209 13.5731 4.7871 13.8114 4.7871C14.0497 4.7871 14.2783 4.88209 14.4468 5.05117C14.6153 5.22026 14.71 5.44959 14.71 5.68871C14.7087 5.84634 14.6685 6.00121 14.5931 6.13952C14.5334 6.24188 14.4943 6.35508 14.4782 6.47263C14.4621 6.59017 14.4693 6.70975 14.4993 6.8245C14.5294 6.93925 14.5817 7.04692 14.6533 7.14134C14.7249 7.23576 14.8144 7.31507 14.9166 7.37473C15.0192 7.43434 15.1325 7.47301 15.25 7.4885C15.3675 7.50399 15.4869 7.496 15.6013 7.465C15.7158 7.43399 15.823 7.38057 15.9167 7.30783C16.0105 7.23508 16.089 7.14444 16.1477 7.04113C16.2149 6.89501 16.272 6.74438 16.3184 6.59032C16.381 6.58156 16.4445 6.58156 16.5071 6.59032C16.7454 6.59032 16.974 6.68531 17.1425 6.8544C17.311 7.02348 17.4057 7.25281 17.4057 7.49193C17.4043 7.66868 17.3512 7.84112 17.2529 7.98782C17.1794 8.10482 17.0774 8.20103 16.9564 8.26732C16.7491 8.38688 16.5975 8.58419 16.5352 8.81584C16.4728 9.04748 16.5048 9.29449 16.6239 9.50253C16.7431 9.71057 16.9397 9.86259 17.1706 9.92515C17.4015 9.98771 17.6476 9.95569 17.855 9.83613C18.0163 9.74859 18.1671 9.6427 18.3043 9.52056C18.6039 9.68793 18.8496 9.93785 19.0123 10.2408C19.175 10.5438 19.2479 10.8871 19.2224 11.2303C19.1969 11.5734 19.074 11.9021 18.8683 12.1775C18.6627 12.4529 18.3827 12.6635 18.0616 12.7844H18.0257Z"/>
</mask>
<path d="M21 11.0984C21.0025 10.4629 20.8376 9.83802 20.522 9.28703C20.2064 8.73605 19.7513 8.27852 19.2028 7.96077C19.2163 7.80479 19.2163 7.64792 19.2028 7.49193C19.2028 6.77457 18.9188 6.08658 18.4133 5.57933C17.9077 5.07207 17.2221 4.7871 16.5071 4.7871H16.3454C16.1957 4.37083 15.9466 3.99776 15.6198 3.7006C15.293 3.40345 14.8986 3.19127 14.471 3.08269C14.0435 2.97411 13.5959 2.97244 13.1676 3.07782C12.7392 3.1832 12.3432 3.39242 12.0142 3.68713C11.6853 3.39242 11.2892 3.1832 10.8609 3.07782C10.4326 2.97244 9.985 2.97411 9.55746 3.08269C9.12993 3.19127 8.73547 3.40345 8.40868 3.7006C8.08189 3.99776 7.83275 4.37083 7.68312 4.7871H7.52137C6.80642 4.7871 6.12076 5.07207 5.61521 5.57933C5.10966 6.08658 4.82565 6.77457 4.82565 7.49193C4.81213 7.64792 4.81213 7.80479 4.82565 7.96077C4.31568 8.25001 3.88388 8.65992 3.56787 9.15485C3.25185 9.64977 3.06118 10.2147 3.01245 10.8004C2.96373 11.3862 3.05843 11.975 3.28832 12.5156C3.5182 13.0563 3.8763 13.5323 4.33144 13.9024C4.03695 14.4535 3.89034 15.072 3.906 15.6972C3.92167 16.3223 4.09906 16.9326 4.42077 17.4682C4.74249 18.0038 5.19747 18.4462 5.74106 18.7521C6.28464 19.058 6.89815 19.2168 7.52137 19.2129H7.68312C7.83275 19.6292 8.08189 20.0022 8.40868 20.2994C8.73547 20.5966 9.12993 20.8087 9.55746 20.9173C9.985 21.0259 10.4326 21.0276 10.8609 20.9222C11.2892 20.8168 11.6853 20.6076 12.0142 20.3129C12.3432 20.6076 12.7392 20.8168 13.1676 20.9222C13.5959 21.0276 14.0435 21.0259 14.471 20.9173C14.8986 20.8087 15.293 20.5966 15.6198 20.2994C15.9466 20.0022 16.1957 19.6292 16.3454 19.2129H16.5071C17.1265 19.209 17.7344 19.0445 18.2718 18.7354C18.8092 18.4263 19.2579 17.9832 19.5743 17.4489C19.8907 16.9145 20.0642 16.3073 20.0778 15.6859C20.0914 15.0645 19.9448 14.4502 19.6521 13.9024C20.0712 13.5657 20.4099 13.1391 20.6431 12.6538C20.8764 12.1686 20.9983 11.6371 21 11.0984ZM11.1157 8.88944C10.92 8.77712 10.7156 8.68064 10.5046 8.60092C10.2782 8.5244 10.0308 8.54126 9.8168 8.64778C9.60278 8.7543 9.43971 8.94177 9.36345 9.16893C9.28719 9.3961 9.30399 9.64436 9.41015 9.8591C9.51631 10.0738 9.70315 10.2375 9.92955 10.314C10.2754 10.4395 10.5746 10.6684 10.7868 10.9699C10.9989 11.2714 11.1137 11.631 11.1157 12V13.3975C10.92 13.2852 10.7156 13.1887 10.5046 13.109C10.2782 13.0325 10.0308 13.0493 9.8168 13.1558C9.60278 13.2624 9.43971 13.4498 9.36345 13.677C9.28719 13.9042 9.30399 14.1524 9.41015 14.3672C9.51631 14.5819 9.70315 14.7455 9.92955 14.822C10.2754 14.9475 10.5746 15.1765 10.7868 15.478C10.9989 15.7795 11.1137 16.139 11.1157 16.5081V18.3113C11.1157 18.5504 11.021 18.7797 10.8525 18.9488C10.684 19.1179 10.4554 19.2129 10.2171 19.2129C10.0432 19.2118 9.87347 19.1601 9.72833 19.064C9.58319 18.968 9.46893 18.8318 9.39939 18.6719C9.55006 18.5832 9.6942 18.4838 9.83071 18.3744C9.92157 18.2986 9.99666 18.2056 10.0517 18.1007C10.1068 17.9958 10.1407 17.8811 10.1515 17.763C10.1624 17.645 10.1499 17.526 10.1149 17.4127C10.0799 17.2995 10.023 17.1943 9.94752 17.1031C9.872 17.012 9.77932 16.9366 9.67478 16.8814C9.57023 16.8261 9.45587 16.7921 9.33822 16.7812C9.22057 16.7703 9.10193 16.7828 8.98909 16.8179C8.87624 16.8531 8.77139 16.9101 8.68053 16.9859C8.35608 17.26 7.94549 17.4101 7.52137 17.4097C7.04474 17.4097 6.58763 17.2197 6.2506 16.8815C5.91357 16.5434 5.72423 16.0847 5.72423 15.6065C5.72852 15.2671 5.82819 14.9358 6.01177 14.6507C6.21343 14.687 6.41792 14.7051 6.6228 14.7048C6.86111 14.7048 7.08967 14.6098 7.25819 14.4408C7.4267 14.2717 7.52137 14.0423 7.52137 13.8032C7.52137 13.5641 7.4267 13.3348 7.25819 13.1657C7.08967 12.9966 6.86111 12.9016 6.6228 12.9016C6.41054 12.9028 6.20004 12.863 6.00278 12.7844C5.67961 12.6675 5.39661 12.46 5.18732 12.1866C4.97803 11.9133 4.85122 11.5854 4.8219 11.242C4.79259 10.8985 4.86201 10.5538 5.02193 10.2487C5.18185 9.94365 5.42557 9.69095 5.72423 9.52056C5.85191 9.63844 5.99029 9.74409 6.13757 9.83613C6.3449 9.95569 6.59108 9.98771 6.82195 9.92515C7.05281 9.86259 7.24946 9.71057 7.36861 9.50253C7.48777 9.29449 7.51969 9.04748 7.45734 8.81584C7.39499 8.58419 7.24348 8.38688 7.03614 8.26732C6.90965 8.19731 6.80415 8.09457 6.73063 7.96979C6.64755 7.82503 6.60997 7.65848 6.6228 7.49193C6.6228 7.25281 6.71747 7.02348 6.88598 6.8544C7.0545 6.68531 7.28306 6.59032 7.52137 6.59032C7.58397 6.58156 7.64748 6.58156 7.71007 6.59032C7.75764 6.73518 7.81467 6.87674 7.8808 7.01408C7.93951 7.11739 8.018 7.20803 8.11176 7.28078C8.20553 7.35353 8.31271 7.40694 8.42713 7.43795C8.54155 7.46896 8.66096 7.47694 8.77848 7.46145C8.89599 7.44596 9.00929 7.40729 9.11185 7.34768C9.31107 7.22741 9.45607 7.03434 9.51639 6.80905C9.57672 6.58375 9.54766 6.34377 9.43533 6.13952C9.35994 6.00121 9.31981 5.84634 9.31852 5.68871C9.31852 5.44959 9.41319 5.22026 9.5817 5.05117C9.75022 4.88209 9.97878 4.7871 10.2171 4.7871C10.4554 4.7871 10.684 4.88209 10.8525 5.05117C11.021 5.22026 11.1157 5.44959 11.1157 5.68871V8.88944ZM18.0257 12.7844C17.8284 12.863 17.6179 12.9028 17.4057 12.9016C17.1674 12.9016 16.9388 12.9966 16.7703 13.1657C16.6018 13.3348 16.5071 13.5641 16.5071 13.8032C16.5071 14.0423 16.6018 14.2717 16.7703 14.4408C16.9388 14.6098 17.1674 14.7048 17.4057 14.7048C17.6106 14.7051 17.815 14.687 18.0167 14.6507C18.2003 14.9358 18.3 15.2671 18.3043 15.6065C18.3043 16.0847 18.1149 16.5434 17.7779 16.8815C17.4408 17.2197 16.9837 17.4097 16.5071 17.4097C16.083 17.4101 15.6724 17.26 15.3479 16.9859C15.1644 16.8329 14.9279 16.7593 14.6903 16.7812C14.4527 16.8032 14.2335 16.919 14.081 17.1031C13.9284 17.2873 13.8551 17.5246 13.877 17.763C13.8989 18.0015 14.0143 18.2214 14.1978 18.3744C14.3343 18.4838 14.4784 18.5832 14.6291 18.6719C14.5596 18.8318 14.4453 18.968 14.3001 19.064C14.155 19.1601 13.9852 19.2118 13.8114 19.2129C13.5731 19.2129 13.3445 19.1179 13.176 18.9488C13.0075 18.7797 12.9128 18.5504 12.9128 18.3113V16.5081C12.9148 16.139 13.0296 15.7795 13.2417 15.478C13.4538 15.1765 13.753 14.9475 14.0989 14.822C14.3253 14.7455 14.5122 14.5819 14.6183 14.3672C14.7245 14.1524 14.7413 13.9042 14.665 13.677C14.5888 13.4498 14.4257 13.2624 14.2117 13.1558C13.9977 13.0493 13.7502 13.0325 13.5238 13.109C13.3128 13.1887 13.1085 13.2852 12.9128 13.3975V12C12.9148 11.631 13.0296 11.2714 13.2417 10.9699C13.4538 10.6684 13.753 10.4395 14.0989 10.314C14.3253 10.2375 14.5122 10.0738 14.6183 9.8591C14.7245 9.64436 14.7413 9.3961 14.665 9.16893C14.5888 8.94177 14.4257 8.7543 14.2117 8.64778C13.9977 8.54126 13.7502 8.5244 13.5238 8.60092C13.3128 8.68064 13.1085 8.77712 12.9128 8.88944V5.68871C12.9128 5.44959 13.0075 5.22026 13.176 5.05117C13.3445 4.88209 13.5731 4.7871 13.8114 4.7871C14.0497 4.7871 14.2783 4.88209 14.4468 5.05117C14.6153 5.22026 14.71 5.44959 14.71 5.68871C14.7087 5.84634 14.6685 6.00121 14.5931 6.13952C14.5334 6.24188 14.4943 6.35508 14.4782 6.47263C14.4621 6.59017 14.4693 6.70975 14.4993 6.8245C14.5294 6.93925 14.5817 7.04692 14.6533 7.14134C14.7249 7.23576 14.8144 7.31507 14.9166 7.37473C15.0192 7.43434 15.1325 7.47301 15.25 7.4885C15.3675 7.50399 15.4869 7.496 15.6013 7.465C15.7158 7.43399 15.823 7.38057 15.9167 7.30783C16.0105 7.23508 16.089 7.14444 16.1477 7.04113C16.2149 6.89501 16.272 6.74438 16.3184 6.59032C16.381 6.58156 16.4445 6.58156 16.5071 6.59032C16.7454 6.59032 16.974 6.68531 17.1425 6.8544C17.311 7.02348 17.4057 7.25281 17.4057 7.49193C17.4043 7.66868 17.3512 7.84112 17.2529 7.98782C17.1794 8.10482 17.0774 8.20103 16.9564 8.26732C16.7491 8.38688 16.5975 8.58419 16.5352 8.81584C16.4728 9.04748 16.5048 9.29449 16.6239 9.50253C16.7431 9.71057 16.9397 9.86259 17.1706 9.92515C17.4015 9.98771 17.6476 9.95569 17.855 9.83613C18.0163 9.74859 18.1671 9.6427 18.3043 9.52056C18.6039 9.68793 18.8496 9.93785 19.0123 10.2408C19.175 10.5438 19.2479 10.8871 19.2224 11.2303C19.1969 11.5734 19.074 11.9021 18.8683 12.1775C18.6627 12.4529 18.3827 12.6635 18.0616 12.7844H18.0257Z" fill="#F2EFEA" stroke="#F2EFEA" stroke-width="2" mask="url(#path-1-inside-1_5027_2833)"/>
</svg>
