<svg width="22" height="23" viewBox="0 0 22 23" fill="none" xmlns="http://www.w3.org/2000/svg">
  <path d="M11 2C12.2 2 12.7 3.1 13.1 4.1C13.5 5.1 14.1 6.2 15.1 6.6C16.1 7 17.2 7.5 17.2 8.7C17.2 9.9 16.1 10.4 15.1 10.8C14.1 11.2 13.5 12.3 13.1 13.3C12.7 14.3 12.2 15.4 11 15.4C9.8 15.4 9.3 14.3 8.9 13.3C8.5 12.3 7.9 11.2 6.9 10.8C5.9 10.4 4.8 9.9 4.8 8.7C4.8 7.5 5.9 7 6.9 6.6C7.9 6.2 8.5 5.1 8.9 4.1C9.3 3.1 9.8 2 11 2Z" stroke="#F2EFEA" stroke-width="2" fill="none" stroke-linecap="round" stroke-linejoin="round"/>
</svg>